<mxfile host="Electron" modified="2024-01-02T13:48:01.479Z" agent="Mozilla/5.0 (Windows NT 10.0; Win64; x64) AppleWebKit/537.36 (KHTML, like Gecko) draw.io/22.1.11 Chrome/114.0.5735.289 Electron/25.9.8 Safari/537.36" etag="6tfWWBzwCSpQLH4jPZBy" version="22.1.11" type="device">
  <diagram name="Страница — 1" id="rUoEkw3EwaUcdeqqLUP8">
    <mxGraphModel dx="7050" dy="4140" grid="1" gridSize="10" guides="1" tooltips="1" connect="1" arrows="1" fold="1" page="1" pageScale="1" pageWidth="2339" pageHeight="3300" math="0" shadow="0">
      <root>
        <mxCell id="0" />
        <mxCell id="1" parent="0" />
        <mxCell id="st2RlxZNLDCewE1ghR0t-10" value="" style="shape=process;whiteSpace=wrap;html=1;backgroundOutline=1;fontFamily=GOST type B;fontStyle=2" parent="1" vertex="1">
          <mxGeometry x="944" y="1967" width="520" height="170" as="geometry" />
        </mxCell>
        <mxCell id="st2RlxZNLDCewE1ghR0t-3" value="" style="shape=parallelogram;perimeter=parallelogramPerimeter;whiteSpace=wrap;html=1;fixedSize=1;fontFamily=GOST type B;fontStyle=2" parent="1" vertex="1">
          <mxGeometry x="944" y="273" width="520" height="130" as="geometry" />
        </mxCell>
        <mxCell id="st2RlxZNLDCewE1ghR0t-2" value="" style="rounded=1;whiteSpace=wrap;html=1;arcSize=50;fontFamily=GOST type B;fontStyle=2" parent="1" vertex="1">
          <mxGeometry x="944" y="3085" width="520" height="130" as="geometry" />
        </mxCell>
        <mxCell id="st2RlxZNLDCewE1ghR0t-1" value="" style="rounded=1;whiteSpace=wrap;html=1;arcSize=50;fontFamily=GOST type B;spacing=2;rotation=0;fontStyle=2" parent="1" vertex="1">
          <mxGeometry x="944" y="77" width="520" height="130" as="geometry" />
        </mxCell>
        <mxCell id="3B3FaR6OrWppaIp_lwUA-4" value="&lt;font style=&quot;font-size: 40px;&quot;&gt;Начало&lt;/font&gt;" style="text;html=1;strokeColor=none;fillColor=none;align=center;verticalAlign=middle;whiteSpace=wrap;rounded=0;fontFamily=GOST type B;fontStyle=2" parent="1" vertex="1">
          <mxGeometry x="1128" y="107" width="150" height="60" as="geometry" />
        </mxCell>
        <mxCell id="3B3FaR6OrWppaIp_lwUA-62" value="&lt;font style=&quot;font-size: 40px;&quot;&gt;Создание чата или подключение к нему&amp;nbsp;&lt;/font&gt;" style="text;html=1;strokeColor=none;fillColor=none;align=center;verticalAlign=middle;whiteSpace=wrap;rounded=0;fontFamily=GOST type B;fontStyle=2" parent="1" vertex="1">
          <mxGeometry x="987.12" y="1987.5" width="447.5" height="125" as="geometry" />
        </mxCell>
        <mxCell id="3B3FaR6OrWppaIp_lwUA-81" value="&lt;font style=&quot;font-size: 40px;&quot;&gt;Конец&lt;/font&gt;" style="text;html=1;strokeColor=none;fillColor=none;align=center;verticalAlign=middle;whiteSpace=wrap;rounded=0;fontFamily=GOST type B;fontStyle=2" parent="1" vertex="1">
          <mxGeometry x="1178.5" y="3135" width="60" height="30" as="geometry" />
        </mxCell>
        <mxCell id="3B3FaR6OrWppaIp_lwUA-92" value="" style="endArrow=none;html=1;rounded=0;fontFamily=GOST type B;fontStyle=2" parent="1" edge="1">
          <mxGeometry width="50" height="50" relative="1" as="geometry">
            <mxPoint x="80" y="3280" as="sourcePoint" />
            <mxPoint x="80" y="20" as="targetPoint" />
          </mxGeometry>
        </mxCell>
        <mxCell id="3B3FaR6OrWppaIp_lwUA-93" value="" style="endArrow=none;html=1;rounded=0;fontFamily=GOST type B;fontStyle=2" parent="1" edge="1">
          <mxGeometry width="50" height="50" relative="1" as="geometry">
            <mxPoint x="80" y="20" as="sourcePoint" />
            <mxPoint x="2320" y="20" as="targetPoint" />
          </mxGeometry>
        </mxCell>
        <mxCell id="3B3FaR6OrWppaIp_lwUA-94" value="" style="endArrow=none;html=1;rounded=0;fontFamily=GOST type B;fontStyle=2" parent="1" edge="1">
          <mxGeometry width="50" height="50" relative="1" as="geometry">
            <mxPoint x="2320" y="3280" as="sourcePoint" />
            <mxPoint x="2320" y="20" as="targetPoint" />
          </mxGeometry>
        </mxCell>
        <mxCell id="3B3FaR6OrWppaIp_lwUA-95" value="" style="endArrow=none;html=1;rounded=0;fontFamily=GOST type B;fontStyle=2" parent="1" edge="1">
          <mxGeometry width="50" height="50" relative="1" as="geometry">
            <mxPoint x="80" y="3280" as="sourcePoint" />
            <mxPoint x="2320" y="3280" as="targetPoint" />
          </mxGeometry>
        </mxCell>
        <mxCell id="3B3FaR6OrWppaIp_lwUA-96" value="" style="group;labelBackgroundColor=none;fontFamily=GOST type B;fontStyle=2" parent="1" vertex="1" connectable="0">
          <mxGeometry x="1580" y="3060" width="740" height="238" as="geometry" />
        </mxCell>
        <mxCell id="3B3FaR6OrWppaIp_lwUA-97" value="" style="endArrow=none;html=1;rounded=0;labelBackgroundColor=none;fontColor=default;fontFamily=GOST type B;fontStyle=2" parent="3B3FaR6OrWppaIp_lwUA-96" edge="1">
          <mxGeometry width="50" height="50" relative="1" as="geometry">
            <mxPoint y="220" as="sourcePoint" />
            <mxPoint as="targetPoint" />
          </mxGeometry>
        </mxCell>
        <mxCell id="3B3FaR6OrWppaIp_lwUA-98" value="" style="endArrow=none;html=1;rounded=0;labelBackgroundColor=none;fontColor=default;fontFamily=GOST type B;fontStyle=2" parent="3B3FaR6OrWppaIp_lwUA-96" edge="1">
          <mxGeometry width="50" height="50" relative="1" as="geometry">
            <mxPoint as="sourcePoint" />
            <mxPoint x="740" as="targetPoint" />
          </mxGeometry>
        </mxCell>
        <mxCell id="3B3FaR6OrWppaIp_lwUA-99" value="" style="endArrow=none;html=1;rounded=0;labelBackgroundColor=none;fontColor=default;fontFamily=GOST type B;fontStyle=2" parent="3B3FaR6OrWppaIp_lwUA-96" edge="1">
          <mxGeometry width="50" height="50" relative="1" as="geometry">
            <mxPoint x="540" y="220.01000000000022" as="sourcePoint" />
            <mxPoint x="540" y="60.01000000000022" as="targetPoint" />
          </mxGeometry>
        </mxCell>
        <mxCell id="3B3FaR6OrWppaIp_lwUA-100" value="" style="endArrow=none;html=1;rounded=0;labelBackgroundColor=none;fontColor=default;fontFamily=GOST type B;fontStyle=2" parent="3B3FaR6OrWppaIp_lwUA-96" edge="1">
          <mxGeometry width="50" height="50" relative="1" as="geometry">
            <mxPoint x="260" y="220" as="sourcePoint" />
            <mxPoint x="260" as="targetPoint" />
          </mxGeometry>
        </mxCell>
        <mxCell id="3B3FaR6OrWppaIp_lwUA-101" value="" style="endArrow=none;html=1;rounded=0;labelBackgroundColor=none;fontColor=default;fontFamily=GOST type B;fontStyle=2" parent="3B3FaR6OrWppaIp_lwUA-96" edge="1">
          <mxGeometry width="50" height="50" relative="1" as="geometry">
            <mxPoint x="220" y="220" as="sourcePoint" />
            <mxPoint x="220" as="targetPoint" />
          </mxGeometry>
        </mxCell>
        <mxCell id="3B3FaR6OrWppaIp_lwUA-102" value="" style="endArrow=none;html=1;rounded=0;labelBackgroundColor=none;fontColor=default;fontFamily=GOST type B;fontStyle=2" parent="3B3FaR6OrWppaIp_lwUA-96" edge="1">
          <mxGeometry width="50" height="50" relative="1" as="geometry">
            <mxPoint x="160" y="220.01000000000022" as="sourcePoint" />
            <mxPoint x="160" y="0.010000000000218279" as="targetPoint" />
          </mxGeometry>
        </mxCell>
        <mxCell id="3B3FaR6OrWppaIp_lwUA-103" value="" style="endArrow=none;html=1;rounded=0;labelBackgroundColor=none;fontColor=default;fontFamily=GOST type B;fontStyle=2" parent="3B3FaR6OrWppaIp_lwUA-96" edge="1">
          <mxGeometry width="50" height="50" relative="1" as="geometry">
            <mxPoint x="66.82999999999993" y="220.01000000000022" as="sourcePoint" />
            <mxPoint x="66.82999999999993" y="0.010000000000218279" as="targetPoint" />
          </mxGeometry>
        </mxCell>
        <mxCell id="3B3FaR6OrWppaIp_lwUA-104" value="" style="endArrow=none;html=1;rounded=0;labelBackgroundColor=none;fontColor=default;fontFamily=GOST type B;fontStyle=2" parent="3B3FaR6OrWppaIp_lwUA-96" edge="1">
          <mxGeometry width="50" height="50" relative="1" as="geometry">
            <mxPoint x="23" y="100" as="sourcePoint" />
            <mxPoint x="23" as="targetPoint" />
          </mxGeometry>
        </mxCell>
        <mxCell id="3B3FaR6OrWppaIp_lwUA-105" value="" style="endArrow=none;html=1;rounded=0;labelBackgroundColor=none;fontColor=default;fontFamily=GOST type B;fontStyle=2" parent="3B3FaR6OrWppaIp_lwUA-96" edge="1">
          <mxGeometry width="50" height="50" relative="1" as="geometry">
            <mxPoint x="260" y="20" as="sourcePoint" />
            <mxPoint y="20" as="targetPoint" />
          </mxGeometry>
        </mxCell>
        <mxCell id="3B3FaR6OrWppaIp_lwUA-106" value="" style="endArrow=none;html=1;rounded=0;labelBackgroundColor=none;fontColor=default;fontFamily=GOST type B;fontStyle=2" parent="3B3FaR6OrWppaIp_lwUA-96" edge="1">
          <mxGeometry width="50" height="50" relative="1" as="geometry">
            <mxPoint x="260" y="40" as="sourcePoint" />
            <mxPoint y="40" as="targetPoint" />
          </mxGeometry>
        </mxCell>
        <mxCell id="3B3FaR6OrWppaIp_lwUA-107" value="" style="endArrow=none;html=1;rounded=0;labelBackgroundColor=none;fontColor=default;fontFamily=GOST type B;fontStyle=2" parent="3B3FaR6OrWppaIp_lwUA-96" edge="1">
          <mxGeometry width="50" height="50" relative="1" as="geometry">
            <mxPoint x="260" y="60" as="sourcePoint" />
            <mxPoint y="60" as="targetPoint" />
          </mxGeometry>
        </mxCell>
        <mxCell id="3B3FaR6OrWppaIp_lwUA-108" value="" style="endArrow=none;html=1;rounded=0;fontFamily=GOST type B;labelBackgroundColor=none;fontColor=default;fontStyle=2" parent="3B3FaR6OrWppaIp_lwUA-96" edge="1">
          <mxGeometry width="50" height="50" relative="1" as="geometry">
            <mxPoint x="260" y="80" as="sourcePoint" />
            <mxPoint y="80" as="targetPoint" />
          </mxGeometry>
        </mxCell>
        <mxCell id="3B3FaR6OrWppaIp_lwUA-109" value="" style="endArrow=none;html=1;rounded=0;fontFamily=GOST type B;labelBackgroundColor=none;fontColor=default;fontStyle=2" parent="3B3FaR6OrWppaIp_lwUA-96" edge="1">
          <mxGeometry width="50" height="50" relative="1" as="geometry">
            <mxPoint x="260" y="100" as="sourcePoint" />
            <mxPoint y="100" as="targetPoint" />
          </mxGeometry>
        </mxCell>
        <mxCell id="3B3FaR6OrWppaIp_lwUA-110" value="" style="endArrow=none;html=1;rounded=0;fontFamily=GOST type B;labelBackgroundColor=none;fontColor=default;fontStyle=2" parent="3B3FaR6OrWppaIp_lwUA-96" edge="1">
          <mxGeometry width="50" height="50" relative="1" as="geometry">
            <mxPoint x="260" y="120" as="sourcePoint" />
            <mxPoint y="120" as="targetPoint" />
          </mxGeometry>
        </mxCell>
        <mxCell id="3B3FaR6OrWppaIp_lwUA-111" value="" style="endArrow=none;html=1;rounded=0;fontFamily=GOST type B;labelBackgroundColor=none;fontColor=default;fontStyle=2" parent="3B3FaR6OrWppaIp_lwUA-96" edge="1">
          <mxGeometry width="50" height="50" relative="1" as="geometry">
            <mxPoint x="260" y="140" as="sourcePoint" />
            <mxPoint y="140" as="targetPoint" />
          </mxGeometry>
        </mxCell>
        <mxCell id="3B3FaR6OrWppaIp_lwUA-112" value="" style="endArrow=none;html=1;rounded=0;fontFamily=GOST type B;labelBackgroundColor=none;fontColor=default;fontStyle=2" parent="3B3FaR6OrWppaIp_lwUA-96" edge="1">
          <mxGeometry width="50" height="50" relative="1" as="geometry">
            <mxPoint x="260" y="160" as="sourcePoint" />
            <mxPoint y="160" as="targetPoint" />
          </mxGeometry>
        </mxCell>
        <mxCell id="3B3FaR6OrWppaIp_lwUA-113" value="" style="endArrow=none;html=1;rounded=0;fontFamily=GOST type B;labelBackgroundColor=none;fontColor=default;fontStyle=2" parent="3B3FaR6OrWppaIp_lwUA-96" edge="1">
          <mxGeometry width="50" height="50" relative="1" as="geometry">
            <mxPoint x="260" y="180" as="sourcePoint" />
            <mxPoint y="180" as="targetPoint" />
          </mxGeometry>
        </mxCell>
        <mxCell id="3B3FaR6OrWppaIp_lwUA-114" value="" style="endArrow=none;html=1;rounded=0;fontFamily=GOST type B;labelBackgroundColor=none;fontColor=default;fontStyle=2" parent="3B3FaR6OrWppaIp_lwUA-96" edge="1">
          <mxGeometry width="50" height="50" relative="1" as="geometry">
            <mxPoint x="260" y="200" as="sourcePoint" />
            <mxPoint y="200" as="targetPoint" />
          </mxGeometry>
        </mxCell>
        <mxCell id="3B3FaR6OrWppaIp_lwUA-115" value="" style="endArrow=none;html=1;rounded=0;exitX=0.93;exitY=0.476;exitDx=0;exitDy=0;exitPerimeter=0;labelBackgroundColor=none;fontColor=default;fontFamily=GOST type B;fontStyle=2" parent="3B3FaR6OrWppaIp_lwUA-96" edge="1">
          <mxGeometry width="50" height="50" relative="1" as="geometry">
            <mxPoint x="739.2538800000002" y="60.00930000000017" as="sourcePoint" />
            <mxPoint x="260" y="60" as="targetPoint" />
          </mxGeometry>
        </mxCell>
        <mxCell id="3B3FaR6OrWppaIp_lwUA-116" value="" style="endArrow=none;html=1;rounded=0;exitX=0.93;exitY=0.476;exitDx=0;exitDy=0;exitPerimeter=0;labelBackgroundColor=none;fontColor=default;fontFamily=GOST type B;fontStyle=2" parent="3B3FaR6OrWppaIp_lwUA-96" edge="1">
          <mxGeometry width="50" height="50" relative="1" as="geometry">
            <mxPoint x="739.2638800000004" y="160.00930000000017" as="sourcePoint" />
            <mxPoint x="260.0100000000002" y="160" as="targetPoint" />
          </mxGeometry>
        </mxCell>
        <mxCell id="3B3FaR6OrWppaIp_lwUA-117" value="" style="endArrow=none;html=1;rounded=0;labelBackgroundColor=none;fontColor=default;fontFamily=GOST type B;fontStyle=2" parent="3B3FaR6OrWppaIp_lwUA-96" edge="1">
          <mxGeometry width="50" height="50" relative="1" as="geometry">
            <mxPoint x="740" y="80" as="sourcePoint" />
            <mxPoint x="540" y="80" as="targetPoint" />
          </mxGeometry>
        </mxCell>
        <mxCell id="3B3FaR6OrWppaIp_lwUA-118" value="" style="endArrow=none;html=1;rounded=0;labelBackgroundColor=none;fontColor=default;fontFamily=GOST type B;fontStyle=2" parent="3B3FaR6OrWppaIp_lwUA-96" edge="1">
          <mxGeometry width="50" height="50" relative="1" as="geometry">
            <mxPoint x="739.2600000000002" y="140" as="sourcePoint" />
            <mxPoint x="540" y="140" as="targetPoint" />
          </mxGeometry>
        </mxCell>
        <mxCell id="3B3FaR6OrWppaIp_lwUA-119" value="" style="endArrow=none;html=1;rounded=0;labelBackgroundColor=none;fontColor=default;fontFamily=GOST type B;fontStyle=2" parent="3B3FaR6OrWppaIp_lwUA-96" edge="1">
          <mxGeometry width="50" height="50" relative="1" as="geometry">
            <mxPoint x="560" y="140" as="sourcePoint" />
            <mxPoint x="560" y="80" as="targetPoint" />
          </mxGeometry>
        </mxCell>
        <mxCell id="3B3FaR6OrWppaIp_lwUA-120" value="" style="endArrow=none;html=1;rounded=0;labelBackgroundColor=none;fontColor=default;fontFamily=GOST type B;fontStyle=2" parent="3B3FaR6OrWppaIp_lwUA-96" edge="1">
          <mxGeometry width="50" height="50" relative="1" as="geometry">
            <mxPoint x="580" y="140" as="sourcePoint" />
            <mxPoint x="580" y="80" as="targetPoint" />
          </mxGeometry>
        </mxCell>
        <mxCell id="3B3FaR6OrWppaIp_lwUA-121" value="" style="endArrow=none;html=1;rounded=0;labelBackgroundColor=none;fontColor=default;fontFamily=GOST type B;fontStyle=2" parent="3B3FaR6OrWppaIp_lwUA-96" edge="1">
          <mxGeometry width="50" height="50" relative="1" as="geometry">
            <mxPoint x="600" y="140" as="sourcePoint" />
            <mxPoint x="600" y="60" as="targetPoint" />
          </mxGeometry>
        </mxCell>
        <mxCell id="3B3FaR6OrWppaIp_lwUA-122" value="" style="endArrow=none;html=1;rounded=0;labelBackgroundColor=none;fontColor=default;fontFamily=GOST type B;fontStyle=2" parent="3B3FaR6OrWppaIp_lwUA-96" edge="1">
          <mxGeometry width="50" height="50" relative="1" as="geometry">
            <mxPoint x="664" y="140" as="sourcePoint" />
            <mxPoint x="664" y="60" as="targetPoint" />
          </mxGeometry>
        </mxCell>
        <mxCell id="3B3FaR6OrWppaIp_lwUA-123" value="" style="endArrow=none;html=1;rounded=0;labelBackgroundColor=none;fontColor=default;fontFamily=GOST type B;fontStyle=2" parent="3B3FaR6OrWppaIp_lwUA-96" edge="1">
          <mxGeometry width="50" height="50" relative="1" as="geometry">
            <mxPoint x="620" y="160" as="sourcePoint" />
            <mxPoint x="620" y="140" as="targetPoint" />
          </mxGeometry>
        </mxCell>
        <mxCell id="3B3FaR6OrWppaIp_lwUA-124" value="&lt;font style=&quot;font-size: 10px;&quot;&gt;&lt;span&gt;Изм.&lt;/span&gt;&lt;/font&gt;" style="text;html=1;align=center;verticalAlign=middle;resizable=0;points=[];autosize=1;strokeColor=none;fillColor=none;fontFamily=GOST type B;labelBackgroundColor=none;fontStyle=2" parent="3B3FaR6OrWppaIp_lwUA-96" vertex="1">
          <mxGeometry x="-8" y="77" width="40" height="30" as="geometry" />
        </mxCell>
        <mxCell id="3B3FaR6OrWppaIp_lwUA-125" value="&lt;font&gt;&lt;span&gt;Т.Контр.&lt;/span&gt;&lt;/font&gt;" style="text;html=1;align=center;verticalAlign=middle;resizable=0;points=[];autosize=1;strokeColor=none;fillColor=none;fontFamily=GOST type B;labelBackgroundColor=none;fontStyle=2" parent="3B3FaR6OrWppaIp_lwUA-96" vertex="1">
          <mxGeometry x="-5" y="138" width="70" height="30" as="geometry" />
        </mxCell>
        <mxCell id="3B3FaR6OrWppaIp_lwUA-126" value="&lt;font&gt;&lt;span&gt;Рец&lt;/span&gt;&lt;/font&gt;." style="text;html=1;align=center;verticalAlign=middle;resizable=0;points=[];autosize=1;strokeColor=none;fillColor=none;fontFamily=GOST type B;labelBackgroundColor=none;fontStyle=2" parent="3B3FaR6OrWppaIp_lwUA-96" vertex="1">
          <mxGeometry y="158" width="40" height="30" as="geometry" />
        </mxCell>
        <mxCell id="3B3FaR6OrWppaIp_lwUA-127" value="&lt;span&gt;&lt;font&gt;Н. контр.&lt;/font&gt;&lt;/span&gt;" style="text;html=1;align=center;verticalAlign=middle;resizable=0;points=[];autosize=1;strokeColor=none;fillColor=none;fontFamily=GOST type B;labelBackgroundColor=none;fontStyle=2" parent="3B3FaR6OrWppaIp_lwUA-96" vertex="1">
          <mxGeometry x="-3" y="178" width="70" height="30" as="geometry" />
        </mxCell>
        <mxCell id="3B3FaR6OrWppaIp_lwUA-128" value="&lt;font&gt;&lt;span&gt;Утв&lt;/span&gt;&lt;/font&gt;." style="text;html=1;align=center;verticalAlign=middle;resizable=0;points=[];autosize=1;strokeColor=none;fillColor=none;labelBackgroundColor=none;fontFamily=GOST type B;fontStyle=2" parent="3B3FaR6OrWppaIp_lwUA-96" vertex="1">
          <mxGeometry x="-8" y="198" width="50" height="30" as="geometry" />
        </mxCell>
        <mxCell id="3B3FaR6OrWppaIp_lwUA-129" value="&lt;span&gt;&lt;font&gt;№ докум.&lt;/font&gt;&lt;/span&gt;" style="text;html=1;align=center;verticalAlign=middle;resizable=0;points=[];autosize=1;strokeColor=none;fillColor=none;fontFamily=GOST type B;labelBackgroundColor=none;fontStyle=2" parent="3B3FaR6OrWppaIp_lwUA-96" vertex="1">
          <mxGeometry x="77" y="77" width="70" height="30" as="geometry" />
        </mxCell>
        <mxCell id="3B3FaR6OrWppaIp_lwUA-130" value="&lt;font&gt;&lt;span&gt;Еленевич&amp;nbsp;&amp;nbsp;&lt;/span&gt;&lt;/font&gt;" style="text;html=1;align=center;verticalAlign=middle;resizable=0;points=[];autosize=1;strokeColor=none;fillColor=none;fontFamily=GOST type B;labelBackgroundColor=none;fontStyle=2" parent="3B3FaR6OrWppaIp_lwUA-96" vertex="1">
          <mxGeometry x="60" y="97" width="80" height="30" as="geometry" />
        </mxCell>
        <mxCell id="3B3FaR6OrWppaIp_lwUA-131" value="&lt;span&gt;Писарчик&lt;/span&gt;" style="text;html=1;align=center;verticalAlign=middle;resizable=0;points=[];autosize=1;strokeColor=none;fillColor=none;fontFamily=GOST type B;labelBackgroundColor=none;fontStyle=2" parent="3B3FaR6OrWppaIp_lwUA-96" vertex="1">
          <mxGeometry x="61" y="117" width="70" height="30" as="geometry" />
        </mxCell>
        <mxCell id="3B3FaR6OrWppaIp_lwUA-132" value="&lt;font&gt;&lt;span&gt;Бруй&amp;nbsp;&amp;nbsp;&lt;/span&gt;&lt;/font&gt;" style="text;html=1;align=center;verticalAlign=middle;resizable=0;points=[];autosize=1;strokeColor=none;fillColor=none;fontFamily=GOST type B;labelBackgroundColor=none;fontStyle=2" parent="3B3FaR6OrWppaIp_lwUA-96" vertex="1">
          <mxGeometry x="58" y="176" width="60" height="30" as="geometry" />
        </mxCell>
        <mxCell id="3B3FaR6OrWppaIp_lwUA-133" value="&lt;font&gt;&lt;span&gt;Дата&lt;/span&gt;&lt;/font&gt;" style="text;html=1;align=center;verticalAlign=middle;resizable=0;points=[];autosize=1;strokeColor=none;fillColor=none;fontFamily=GOST type B;labelBackgroundColor=none;fontStyle=2" parent="3B3FaR6OrWppaIp_lwUA-96" vertex="1">
          <mxGeometry x="215" y="77" width="50" height="30" as="geometry" />
        </mxCell>
        <mxCell id="3B3FaR6OrWppaIp_lwUA-134" value="&lt;span style=&quot;&quot;&gt;1:1&lt;/span&gt;" style="text;html=1;align=center;verticalAlign=middle;resizable=0;points=[];autosize=1;strokeColor=none;fillColor=none;labelBackgroundColor=none;fontFamily=GOST type B;fontStyle=2" parent="3B3FaR6OrWppaIp_lwUA-96" vertex="1">
          <mxGeometry x="685" y="94" width="30" height="30" as="geometry" />
        </mxCell>
        <mxCell id="3B3FaR6OrWppaIp_lwUA-135" value="&lt;span&gt;Каферда ПИКС,&lt;br&gt;&amp;nbsp;гр. 083871&lt;/span&gt;" style="text;html=1;align=center;verticalAlign=middle;resizable=0;points=[];autosize=1;strokeColor=none;fillColor=none;labelBackgroundColor=none;fontFamily=GOST type B;fontStyle=2" parent="3B3FaR6OrWppaIp_lwUA-96" vertex="1">
          <mxGeometry x="590" y="172" width="100" height="40" as="geometry" />
        </mxCell>
        <mxCell id="3B3FaR6OrWppaIp_lwUA-136" value="&lt;span&gt;&lt;font style=&quot;font-size: 20px;&quot;&gt;ГУИР.08387-09 02 01&lt;/font&gt;&lt;/span&gt;" style="text;html=1;align=center;verticalAlign=middle;resizable=0;points=[];autosize=1;strokeColor=none;fillColor=none;labelBackgroundColor=none;fontFamily=GOST type B;fontStyle=2" parent="3B3FaR6OrWppaIp_lwUA-96" vertex="1">
          <mxGeometry x="400" y="10" width="200" height="40" as="geometry" />
        </mxCell>
        <mxCell id="3B3FaR6OrWppaIp_lwUA-137" value="&lt;span style=&quot;font-size: 18px;&quot;&gt;&lt;font style=&quot;font-size: 18px;&quot;&gt;&amp;nbsp;Схема алгоритма отправки&lt;br&gt;сообщений программного&lt;br&gt;средства&lt;/font&gt;&lt;/span&gt;&lt;span style=&quot;font-size: 18px;&quot;&gt;&lt;font style=&quot;font-size: 18px;&quot;&gt;&lt;br&gt;&lt;/font&gt;&lt;/span&gt;" style="text;html=1;align=center;verticalAlign=middle;resizable=0;points=[];autosize=1;strokeColor=none;fillColor=none;labelBackgroundColor=none;fontFamily=GOST type B;fontStyle=2" parent="3B3FaR6OrWppaIp_lwUA-96" vertex="1">
          <mxGeometry x="275" y="69" width="240" height="80" as="geometry" />
        </mxCell>
        <mxCell id="3B3FaR6OrWppaIp_lwUA-138" value="&lt;span&gt;Формат А1&lt;/span&gt;" style="text;html=1;align=center;verticalAlign=middle;resizable=0;points=[];autosize=1;strokeColor=none;fillColor=none;spacing=0;labelBackgroundColor=none;fontFamily=GOST type B;fontStyle=2" parent="3B3FaR6OrWppaIp_lwUA-96" vertex="1">
          <mxGeometry x="600" y="218" width="80" height="20" as="geometry" />
        </mxCell>
        <mxCell id="3B3FaR6OrWppaIp_lwUA-139" value="&lt;span&gt;Лист&lt;/span&gt;" style="text;html=1;align=center;verticalAlign=middle;resizable=0;points=[];autosize=1;strokeColor=none;fillColor=none;fontFamily=GOST type B;fontStyle=2" parent="3B3FaR6OrWppaIp_lwUA-96" vertex="1">
          <mxGeometry x="18" y="77" width="50" height="30" as="geometry" />
        </mxCell>
        <mxCell id="3B3FaR6OrWppaIp_lwUA-140" value="&lt;font style=&quot;font-size: 12px;&quot;&gt;&lt;font style=&quot;font-size: 12px;&quot;&gt;&lt;span&gt;Разраб&lt;/span&gt;&lt;/font&gt;.&lt;/font&gt;" style="text;html=1;align=center;verticalAlign=middle;resizable=0;points=[];autosize=1;strokeColor=none;fillColor=none;fontFamily=GOST type B;labelBackgroundColor=none;fontStyle=2" parent="1" vertex="1">
          <mxGeometry x="1580" y="3158" width="60" height="30" as="geometry" />
        </mxCell>
        <mxCell id="3B3FaR6OrWppaIp_lwUA-141" value="&lt;span&gt;&lt;font&gt;Пров.&lt;/font&gt;&lt;/span&gt;" style="text;html=1;align=center;verticalAlign=middle;resizable=0;points=[];autosize=1;strokeColor=none;fillColor=none;fontFamily=GOST type B;labelBackgroundColor=none;fontStyle=2" parent="1" vertex="1">
          <mxGeometry x="1580" y="3178" width="50" height="30" as="geometry" />
        </mxCell>
        <mxCell id="3B3FaR6OrWppaIp_lwUA-142" value="&lt;span&gt;&lt;font&gt;Писарчик&lt;/font&gt;&lt;/span&gt;" style="text;html=1;align=center;verticalAlign=middle;resizable=0;points=[];autosize=1;strokeColor=none;fillColor=none;fontFamily=GOST type B;labelBackgroundColor=none;fontStyle=2" parent="1" vertex="1">
          <mxGeometry x="1641" y="3197" width="70" height="30" as="geometry" />
        </mxCell>
        <mxCell id="3B3FaR6OrWppaIp_lwUA-143" value="&lt;span&gt;Пискун&lt;/span&gt;" style="text;html=1;align=center;verticalAlign=middle;resizable=0;points=[];autosize=1;strokeColor=none;fillColor=none;fontFamily=GOST type B;labelBackgroundColor=none;fontStyle=2" parent="1" vertex="1">
          <mxGeometry x="1640" y="3256" width="60" height="30" as="geometry" />
        </mxCell>
        <mxCell id="3B3FaR6OrWppaIp_lwUA-144" value="&lt;span&gt;&lt;font&gt;Подп&lt;/font&gt;&lt;/span&gt;." style="text;html=1;align=center;verticalAlign=middle;resizable=0;points=[];autosize=1;strokeColor=none;fillColor=none;fontFamily=GOST type B;labelBackgroundColor=none;fontStyle=2" parent="1" vertex="1">
          <mxGeometry x="1745" y="3137" width="50" height="30" as="geometry" />
        </mxCell>
        <mxCell id="3B3FaR6OrWppaIp_lwUA-145" value="&lt;span&gt;Лит.&lt;/span&gt;" style="text;html=1;align=center;verticalAlign=middle;resizable=0;points=[];autosize=1;strokeColor=none;fillColor=none;labelBackgroundColor=none;fontFamily=GOST type B;fontStyle=2" parent="1" vertex="1">
          <mxGeometry x="2125" y="3118" width="50" height="30" as="geometry" />
        </mxCell>
        <mxCell id="3B3FaR6OrWppaIp_lwUA-146" value="&lt;span&gt;&lt;font&gt;Масса&lt;/font&gt;&lt;/span&gt;" style="text;html=1;align=center;verticalAlign=middle;resizable=0;points=[];autosize=1;strokeColor=none;fillColor=none;labelBackgroundColor=none;fontFamily=GOST type B;fontStyle=2" parent="1" vertex="1">
          <mxGeometry x="2185" y="3118" width="50" height="30" as="geometry" />
        </mxCell>
        <mxCell id="3B3FaR6OrWppaIp_lwUA-147" value="&lt;span&gt;Масштаб&lt;/span&gt;" style="text;html=1;align=center;verticalAlign=middle;resizable=0;points=[];autosize=1;strokeColor=none;fillColor=none;labelBackgroundColor=none;fontFamily=GOST type B;fontStyle=2" parent="1" vertex="1">
          <mxGeometry x="2245" y="3118" width="70" height="30" as="geometry" />
        </mxCell>
        <mxCell id="3B3FaR6OrWppaIp_lwUA-148" value="&lt;span&gt;Т&lt;/span&gt;" style="text;html=1;align=center;verticalAlign=middle;resizable=0;points=[];autosize=1;strokeColor=none;fillColor=none;labelBackgroundColor=none;fontFamily=GOST type B;fontStyle=2" parent="1" vertex="1">
          <mxGeometry x="2134" y="3154" width="30" height="30" as="geometry" />
        </mxCell>
        <mxCell id="3B3FaR6OrWppaIp_lwUA-149" value="&lt;span&gt;Лист&lt;/span&gt;" style="text;html=1;align=center;verticalAlign=middle;resizable=0;points=[];autosize=1;strokeColor=none;fillColor=none;labelBackgroundColor=none;fontFamily=GOST type B;fontStyle=2" parent="1" vertex="1">
          <mxGeometry x="2130" y="3196" width="50" height="30" as="geometry" />
        </mxCell>
        <mxCell id="3B3FaR6OrWppaIp_lwUA-150" value="&lt;span&gt;Листов&lt;/span&gt;" style="text;html=1;align=center;verticalAlign=middle;resizable=0;points=[];autosize=1;strokeColor=none;fillColor=none;labelBackgroundColor=none;fontFamily=GOST type B;fontStyle=2" parent="1" vertex="1">
          <mxGeometry x="2227" y="3196" width="60" height="30" as="geometry" />
        </mxCell>
        <mxCell id="3B3FaR6OrWppaIp_lwUA-154" value="&lt;span&gt;&lt;font style=&quot;font-size: 20px;&quot;&gt;ГУИР.08387-09 02 01&lt;/font&gt;&lt;/span&gt;" style="text;html=1;align=center;verticalAlign=middle;resizable=0;points=[];autosize=1;strokeColor=none;fillColor=none;flipH=1;flipV=1;rotation=180;fontFamily=GOST type B;fontStyle=2" parent="1" vertex="1">
          <mxGeometry x="120" y="27.439999999999998" width="200" height="40" as="geometry" />
        </mxCell>
        <mxCell id="Xw6Lpqs8m2RWPdleDSQT-4" value="" style="endArrow=open;endFill=1;endSize=12;html=1;rounded=0;exitX=0.498;exitY=1.003;exitDx=0;exitDy=0;exitPerimeter=0;entryX=0.498;entryY=-0.003;entryDx=0;entryDy=0;entryPerimeter=0;fontFamily=GOST type B;fontStyle=2" parent="1" edge="1">
          <mxGeometry width="160" relative="1" as="geometry">
            <mxPoint x="1202.6800000000003" y="1007.3900000000003" as="sourcePoint" />
            <mxPoint x="1203.6799999999998" y="1081.6400000000003" as="targetPoint" />
          </mxGeometry>
        </mxCell>
        <mxCell id="Xw6Lpqs8m2RWPdleDSQT-5" value="" style="endArrow=open;endFill=1;endSize=12;html=1;rounded=0;exitX=0.5;exitY=1;exitDx=0;exitDy=0;entryX=0.5;entryY=0;entryDx=0;entryDy=0;fontFamily=GOST type B;fontStyle=2" parent="1" target="Xw6Lpqs8m2RWPdleDSQT-12" edge="1">
          <mxGeometry width="160" relative="1" as="geometry">
            <mxPoint x="1204.5" y="1202" as="sourcePoint" />
            <mxPoint x="1226.5" y="1294" as="targetPoint" />
          </mxGeometry>
        </mxCell>
        <mxCell id="Xw6Lpqs8m2RWPdleDSQT-10" value="" style="rhombus;whiteSpace=wrap;html=1;fontFamily=GOST type B;fontStyle=2" parent="1" vertex="1">
          <mxGeometry x="883" y="464" width="640" height="350" as="geometry" />
        </mxCell>
        <mxCell id="Xw6Lpqs8m2RWPdleDSQT-11" value="&lt;font style=&quot;font-size: 40px;&quot;&gt;Введенные данные соответствуют данным в базе данных?&lt;/font&gt;" style="text;html=1;strokeColor=none;fillColor=none;align=center;verticalAlign=middle;whiteSpace=wrap;rounded=0;fontFamily=GOST type B;fontStyle=2" parent="1" vertex="1">
          <mxGeometry x="984.25" y="552" width="442.5" height="175" as="geometry" />
        </mxCell>
        <mxCell id="Xw6Lpqs8m2RWPdleDSQT-12" value="&lt;span style=&quot;font-size: 40px;&quot;&gt;Выбор пользователя для приватного чата&lt;/span&gt;" style="rounded=0;whiteSpace=wrap;html=1;fontFamily=GOST type B;fontStyle=2" parent="1" vertex="1">
          <mxGeometry x="944" y="1276" width="520" height="200" as="geometry" />
        </mxCell>
        <mxCell id="Xw6Lpqs8m2RWPdleDSQT-13" value="" style="rhombus;whiteSpace=wrap;html=1;fontFamily=GOST type B;fontStyle=2" parent="1" vertex="1">
          <mxGeometry x="885.5" y="1545" width="640" height="350" as="geometry" />
        </mxCell>
        <mxCell id="Xw6Lpqs8m2RWPdleDSQT-14" value="&lt;span style=&quot;font-size: 40px;&quot;&gt;Является ли выбранный пользователь другом ?&lt;/span&gt;" style="text;html=1;strokeColor=none;fillColor=none;align=center;verticalAlign=middle;whiteSpace=wrap;rounded=0;fontFamily=GOST type B;fontStyle=2" parent="1" vertex="1">
          <mxGeometry x="973" y="1626.5" width="494.25" height="187" as="geometry" />
        </mxCell>
        <mxCell id="Xw6Lpqs8m2RWPdleDSQT-15" value="" style="rhombus;whiteSpace=wrap;html=1;fontFamily=GOST type B;fontStyle=2" parent="1" vertex="1">
          <mxGeometry x="945" y="2467.25" width="520" height="274.5" as="geometry" />
        </mxCell>
        <mxCell id="Xw6Lpqs8m2RWPdleDSQT-16" value="&lt;span style=&quot;font-size: 40px;&quot;&gt;Сообщение было отправлено?&lt;/span&gt;" style="text;html=1;strokeColor=none;fillColor=none;align=center;verticalAlign=middle;whiteSpace=wrap;rounded=0;fontFamily=GOST type B;fontStyle=2" parent="1" vertex="1">
          <mxGeometry x="984.5" y="2525" width="442.5" height="175" as="geometry" />
        </mxCell>
        <mxCell id="Xw6Lpqs8m2RWPdleDSQT-23" value="" style="endArrow=open;endFill=1;endSize=12;html=1;rounded=0;exitX=0.5;exitY=1;exitDx=0;exitDy=0;entryX=0.5;entryY=0;entryDx=0;entryDy=0;fontFamily=GOST type B;fontStyle=2" parent="1" source="Xw6Lpqs8m2RWPdleDSQT-10" edge="1">
          <mxGeometry width="160" relative="1" as="geometry">
            <mxPoint x="1203" y="824" as="sourcePoint" />
            <mxPoint x="1203.5" y="877" as="targetPoint" />
          </mxGeometry>
        </mxCell>
        <mxCell id="Xw6Lpqs8m2RWPdleDSQT-24" value="" style="endArrow=open;endFill=1;endSize=12;html=1;rounded=0;exitX=0.5;exitY=1;exitDx=0;exitDy=0;entryX=0.5;entryY=0;entryDx=0;entryDy=0;fontFamily=GOST type B;fontStyle=2" parent="1" edge="1">
          <mxGeometry width="160" relative="1" as="geometry">
            <mxPoint x="1203" y="403" as="sourcePoint" />
            <mxPoint x="1203" y="463" as="targetPoint" />
          </mxGeometry>
        </mxCell>
        <mxCell id="Xw6Lpqs8m2RWPdleDSQT-25" value="" style="endArrow=open;endFill=1;endSize=12;html=1;rounded=0;exitX=0.5;exitY=1;exitDx=0;exitDy=0;entryX=0.5;entryY=0;entryDx=0;entryDy=0;exitPerimeter=0;fontFamily=GOST type B;fontStyle=2" parent="1" edge="1">
          <mxGeometry width="160" relative="1" as="geometry">
            <mxPoint x="1203" y="208" as="sourcePoint" />
            <mxPoint x="1203" y="274" as="targetPoint" />
          </mxGeometry>
        </mxCell>
        <mxCell id="Xw6Lpqs8m2RWPdleDSQT-26" value="" style="endArrow=open;endFill=1;endSize=12;html=1;rounded=0;entryX=0.5;entryY=0;entryDx=0;entryDy=0;exitX=0.5;exitY=1;exitDx=0;exitDy=0;fontFamily=GOST type B;fontStyle=2" parent="1" source="Xw6Lpqs8m2RWPdleDSQT-12" target="Xw6Lpqs8m2RWPdleDSQT-13" edge="1">
          <mxGeometry width="160" relative="1" as="geometry">
            <mxPoint x="1194" y="1524" as="sourcePoint" />
            <mxPoint x="1203.5" y="1614" as="targetPoint" />
          </mxGeometry>
        </mxCell>
        <mxCell id="Xw6Lpqs8m2RWPdleDSQT-28" value="" style="endArrow=open;endFill=1;endSize=12;html=1;rounded=0;exitX=0.5;exitY=1;exitDx=0;exitDy=0;entryX=0.5;entryY=0;entryDx=0;entryDy=0;fontFamily=GOST type B;fontStyle=2" parent="1" source="Xw6Lpqs8m2RWPdleDSQT-13" edge="1">
          <mxGeometry width="160" relative="1" as="geometry">
            <mxPoint x="1244" y="1962.5" as="sourcePoint" />
            <mxPoint x="1205.5" y="1965" as="targetPoint" />
          </mxGeometry>
        </mxCell>
        <mxCell id="Xw6Lpqs8m2RWPdleDSQT-29" value="" style="endArrow=open;endFill=1;endSize=12;html=1;rounded=0;exitX=0.5;exitY=1;exitDx=0;exitDy=0;entryX=0.5;entryY=0;entryDx=0;entryDy=0;fontFamily=GOST type B;fontStyle=2" parent="1" source="st2RlxZNLDCewE1ghR0t-10" edge="1">
          <mxGeometry width="160" relative="1" as="geometry">
            <mxPoint x="1205.5" y="2115" as="sourcePoint" />
            <mxPoint x="1204" y="2218" as="targetPoint" />
          </mxGeometry>
        </mxCell>
        <mxCell id="Xw6Lpqs8m2RWPdleDSQT-30" value="" style="endArrow=open;endFill=1;endSize=12;html=1;rounded=0;exitX=0.5;exitY=1;exitDx=0;exitDy=0;entryX=0.5;entryY=0;entryDx=0;entryDy=0;fontFamily=GOST type B;fontStyle=2" parent="1" target="Xw6Lpqs8m2RWPdleDSQT-15" edge="1">
          <mxGeometry width="160" relative="1" as="geometry">
            <mxPoint x="1204" y="2408" as="sourcePoint" />
            <mxPoint x="1214.42" y="2608" as="targetPoint" />
          </mxGeometry>
        </mxCell>
        <mxCell id="Xw6Lpqs8m2RWPdleDSQT-33" value="" style="endArrow=open;endFill=1;endSize=12;html=1;rounded=0;entryX=1;entryY=0.5;entryDx=0;entryDy=0;fontFamily=GOST type B;fontStyle=2" parent="1" edge="1">
          <mxGeometry width="160" relative="1" as="geometry">
            <mxPoint x="1714" y="337" as="sourcePoint" />
            <mxPoint x="1455" y="336.9999999999999" as="targetPoint" />
          </mxGeometry>
        </mxCell>
        <mxCell id="Xw6Lpqs8m2RWPdleDSQT-34" value="" style="endArrow=none;html=1;rounded=0;exitX=1;exitY=0.5;exitDx=0;exitDy=0;fontFamily=GOST type B;fontStyle=2" parent="1" source="Xw6Lpqs8m2RWPdleDSQT-10" edge="1">
          <mxGeometry width="50" height="50" relative="1" as="geometry">
            <mxPoint x="1525.5" y="647" as="sourcePoint" />
            <mxPoint x="1714" y="639" as="targetPoint" />
          </mxGeometry>
        </mxCell>
        <mxCell id="Xw6Lpqs8m2RWPdleDSQT-35" value="" style="endArrow=none;html=1;rounded=0;fontFamily=GOST type B;fontStyle=2" parent="1" edge="1">
          <mxGeometry width="50" height="50" relative="1" as="geometry">
            <mxPoint x="1714" y="639" as="sourcePoint" />
            <mxPoint x="1714" y="337" as="targetPoint" />
          </mxGeometry>
        </mxCell>
        <mxCell id="Xw6Lpqs8m2RWPdleDSQT-37" value="" style="endArrow=open;endFill=1;endSize=12;html=1;rounded=0;entryX=1;entryY=0.5;entryDx=0;entryDy=0;fontFamily=GOST type B;fontStyle=2" parent="1" edge="1">
          <mxGeometry width="160" relative="1" as="geometry">
            <mxPoint x="1734" y="1376" as="sourcePoint" />
            <mxPoint x="1464" y="1376" as="targetPoint" />
          </mxGeometry>
        </mxCell>
        <mxCell id="Xw6Lpqs8m2RWPdleDSQT-38" value="" style="endArrow=none;html=1;rounded=0;exitX=1;exitY=0.5;exitDx=0;exitDy=0;fontFamily=GOST type B;fontStyle=2" parent="1" source="Xw6Lpqs8m2RWPdleDSQT-13" edge="1">
          <mxGeometry width="50" height="50" relative="1" as="geometry">
            <mxPoint x="1542.39" y="1719" as="sourcePoint" />
            <mxPoint x="1734" y="1720" as="targetPoint" />
          </mxGeometry>
        </mxCell>
        <mxCell id="Xw6Lpqs8m2RWPdleDSQT-39" value="" style="endArrow=none;html=1;rounded=0;fontFamily=GOST type B;fontStyle=2" parent="1" edge="1">
          <mxGeometry width="50" height="50" relative="1" as="geometry">
            <mxPoint x="1733.39" y="1719" as="sourcePoint" />
            <mxPoint x="1734" y="1376" as="targetPoint" />
          </mxGeometry>
        </mxCell>
        <mxCell id="Xw6Lpqs8m2RWPdleDSQT-40" value="" style="endArrow=open;endFill=1;endSize=12;html=1;rounded=0;fontFamily=GOST type B;fontStyle=2" parent="1" edge="1">
          <mxGeometry width="160" relative="1" as="geometry">
            <mxPoint x="710" y="2312" as="sourcePoint" />
            <mxPoint x="955" y="2312" as="targetPoint" />
          </mxGeometry>
        </mxCell>
        <mxCell id="Xw6Lpqs8m2RWPdleDSQT-42" value="" style="endArrow=none;html=1;rounded=0;entryX=0;entryY=0.5;entryDx=0;entryDy=0;fontFamily=GOST type B;fontStyle=2" parent="1" edge="1">
          <mxGeometry width="50" height="50" relative="1" as="geometry">
            <mxPoint x="710" y="2604" as="sourcePoint" />
            <mxPoint x="945" y="2604" as="targetPoint" />
          </mxGeometry>
        </mxCell>
        <mxCell id="Xw6Lpqs8m2RWPdleDSQT-44" value="" style="endArrow=none;html=1;rounded=0;fontFamily=GOST type B;fontStyle=2" parent="1" edge="1">
          <mxGeometry width="50" height="50" relative="1" as="geometry">
            <mxPoint x="710" y="2604" as="sourcePoint" />
            <mxPoint x="710" y="2312" as="targetPoint" />
          </mxGeometry>
        </mxCell>
        <mxCell id="Xw6Lpqs8m2RWPdleDSQT-48" value="&lt;span style=&quot;font-size: 40px;&quot;&gt;Да&lt;/span&gt;" style="text;html=1;strokeColor=none;fillColor=none;align=center;verticalAlign=middle;whiteSpace=wrap;rounded=0;fontFamily=GOST type B;fontStyle=2" parent="1" vertex="1">
          <mxGeometry x="1210" y="805" width="100" height="60" as="geometry" />
        </mxCell>
        <mxCell id="Xw6Lpqs8m2RWPdleDSQT-49" value="&lt;span style=&quot;font-size: 40px;&quot;&gt;Да&lt;/span&gt;" style="text;html=1;strokeColor=none;fillColor=none;align=center;verticalAlign=middle;whiteSpace=wrap;rounded=0;fontFamily=GOST type B;fontStyle=2" parent="1" vertex="1">
          <mxGeometry x="1210" y="1895" width="100" height="60" as="geometry" />
        </mxCell>
        <mxCell id="Xw6Lpqs8m2RWPdleDSQT-50" value="&lt;span style=&quot;font-size: 40px;&quot;&gt;Да&lt;/span&gt;" style="text;html=1;strokeColor=none;fillColor=none;align=center;verticalAlign=middle;whiteSpace=wrap;rounded=0;fontFamily=GOST type B;fontStyle=2" parent="1" vertex="1">
          <mxGeometry x="1210" y="2744" width="100" height="60" as="geometry" />
        </mxCell>
        <mxCell id="Xw6Lpqs8m2RWPdleDSQT-51" value="&lt;span style=&quot;font-size: 40px;&quot;&gt;Нет&lt;/span&gt;" style="text;html=1;strokeColor=none;fillColor=none;align=center;verticalAlign=middle;whiteSpace=wrap;rounded=0;fontFamily=GOST type B;fontStyle=2" parent="1" vertex="1">
          <mxGeometry x="1520" y="580" width="100" height="60" as="geometry" />
        </mxCell>
        <mxCell id="Xw6Lpqs8m2RWPdleDSQT-52" value="&lt;span style=&quot;font-size: 40px;&quot;&gt;Нет&lt;/span&gt;" style="text;html=1;strokeColor=none;fillColor=none;align=center;verticalAlign=middle;whiteSpace=wrap;rounded=0;fontFamily=GOST type B;fontStyle=2" parent="1" vertex="1">
          <mxGeometry x="1519" y="1659" width="100" height="60" as="geometry" />
        </mxCell>
        <mxCell id="Xw6Lpqs8m2RWPdleDSQT-53" value="&lt;span style=&quot;font-size: 40px;&quot;&gt;Нет&lt;/span&gt;" style="text;html=1;strokeColor=none;fillColor=none;align=center;verticalAlign=middle;whiteSpace=wrap;rounded=0;fontFamily=GOST type B;fontStyle=2" parent="1" vertex="1">
          <mxGeometry x="864" y="2547" width="100" height="60" as="geometry" />
        </mxCell>
        <mxCell id="st2RlxZNLDCewE1ghR0t-5" value="&lt;span style=&quot;font-size: 40px;&quot;&gt;Ввод данных для входа в аккаунт&amp;nbsp;&lt;/span&gt;" style="text;html=1;strokeColor=none;fillColor=none;align=center;verticalAlign=middle;whiteSpace=wrap;rounded=0;fontFamily=GOST type B;fontStyle=2" parent="1" vertex="1">
          <mxGeometry x="1038" y="298" width="326" height="80" as="geometry" />
        </mxCell>
        <mxCell id="st2RlxZNLDCewE1ghR0t-7" value="&lt;font style=&quot;font-size: 40px;&quot;&gt;Аутентификация&lt;/font&gt;" style="shape=process;whiteSpace=wrap;html=1;backgroundOutline=1;fontFamily=GOST type B;fontStyle=2" parent="1" vertex="1">
          <mxGeometry x="944" y="877" width="520" height="130" as="geometry" />
        </mxCell>
        <mxCell id="st2RlxZNLDCewE1ghR0t-8" value="&lt;font style=&quot;font-size: 40px;&quot;&gt;Авторизация&lt;/font&gt;" style="shape=process;whiteSpace=wrap;html=1;backgroundOutline=1;fontFamily=GOST type B;fontStyle=2" parent="1" vertex="1">
          <mxGeometry x="944" y="1082" width="520" height="130" as="geometry" />
        </mxCell>
        <mxCell id="st2RlxZNLDCewE1ghR0t-11" value="&lt;font style=&quot;font-size: 40px;&quot;&gt;Отправка сообщения в режиме реального времени&amp;nbsp;&lt;/font&gt;" style="shape=parallelogram;perimeter=parallelogramPerimeter;whiteSpace=wrap;html=1;fixedSize=1;fontFamily=GOST type B;fontStyle=2" parent="1" vertex="1">
          <mxGeometry x="944" y="2217" width="520" height="190" as="geometry" />
        </mxCell>
        <mxCell id="st2RlxZNLDCewE1ghR0t-15" value="" style="endArrow=open;endFill=1;endSize=12;html=1;rounded=0;exitX=0.5;exitY=1;exitDx=0;exitDy=0;entryX=0.5;entryY=0;entryDx=0;entryDy=0;fontFamily=GOST type B;fontStyle=2" parent="1" edge="1">
          <mxGeometry width="160" relative="1" as="geometry">
            <mxPoint x="1205" y="2741" as="sourcePoint" />
            <mxPoint x="1205" y="2821" as="targetPoint" />
          </mxGeometry>
        </mxCell>
        <mxCell id="st2RlxZNLDCewE1ghR0t-16" value="" style="endArrow=open;endFill=1;endSize=12;html=1;rounded=0;exitX=0.5;exitY=1;exitDx=0;exitDy=0;entryX=0.5;entryY=0;entryDx=0;entryDy=0;fontFamily=GOST type B;fontStyle=2" parent="1" edge="1">
          <mxGeometry width="160" relative="1" as="geometry">
            <mxPoint x="1205" y="3011" as="sourcePoint" />
            <mxPoint x="1205" y="3084" as="targetPoint" />
          </mxGeometry>
        </mxCell>
        <mxCell id="st2RlxZNLDCewE1ghR0t-17" value="&lt;font style=&quot;font-size: 40px;&quot;&gt;Чтение сообщения в &lt;br&gt;режиме реального&lt;br&gt;&amp;nbsp;времени&amp;nbsp;&lt;/font&gt;" style="shape=parallelogram;perimeter=parallelogramPerimeter;whiteSpace=wrap;html=1;fixedSize=1;fontFamily=GOST type B;fontStyle=2" parent="1" vertex="1">
          <mxGeometry x="943" y="2821" width="520" height="190" as="geometry" />
        </mxCell>
        <mxCell id="st2RlxZNLDCewE1ghR0t-18" value="&lt;font&gt;&lt;span&gt;Ковалёва&lt;/span&gt;&lt;/font&gt;" style="text;html=1;align=center;verticalAlign=middle;resizable=0;points=[];autosize=1;strokeColor=none;fillColor=none;fontFamily=GOST type B;labelBackgroundColor=none;fontStyle=2" parent="1" vertex="1">
          <mxGeometry x="1641" y="3216" width="70" height="30" as="geometry" />
        </mxCell>
        <object placeholder="BlueprintName" placeholders="1" id="FczhE8L3LTtyUst4VlAY-2">
          <mxCell style="rounded=0;whiteSpace=wrap;html=1;strokeWidth=1;fillColor=none;strokeColor=#000000;fontFamily=GOST type A;fontSize=24;rotation=-180;fontStyle=2" parent="1" vertex="1">
            <mxGeometry x="80.00000000000001" y="19.879999999999995" width="275.59" height="55.117999999999995" as="geometry" />
          </mxCell>
        </object>
      </root>
    </mxGraphModel>
  </diagram>
</mxfile>
